<?xml version="1.0" encoding="utf-8"?>
<!-- Generator: Adobe Illustrator 18.0.0, SVG Export Plug-In . SVG Version: 6.00 Build 0)  -->
<!DOCTYPE svg PUBLIC "-//W3C//DTD SVG 1.1//EN" "http://www.w3.org/Graphics/SVG/1.1/DTD/svg11.dtd">
<svg version="1.1" id="Layer_1" xmlns="http://www.w3.org/2000/svg" xmlns:xlink="http://www.w3.org/1999/xlink" x="0px" y="0px"
	 width="90px" height="34.3px" viewBox="0 0 90 34.3" enable-background="new 0 0 90 34.3" xml:space="preserve">
<g>
	<path fill="#FFFFDE" d="M12,17.5c1,0,2,0.2,2.8,0.7c0.5,0.3,0.9,0.7,1.3,1.1c0.4,0.5,0.5,0.9,1.2,0.8c1.9-0.4,3.4-1.8,3.9-3.7
		c0.3-1,0.3-2.2,0.1-3.2c-0.1-0.3-0.1-0.6-0.1-1c0-1.8,1.2-3.3,2.7-4.1c-1.3-0.2-2.6,0.3-3.7,0.8c-0.2,0.1-0.4,0.2-0.6,0.3
		c-0.5,0.3-0.4,0.1-0.8-0.1c-0.5-0.2-1-0.4-1.5-0.5c-1.1-0.2-2.2-0.2-3.3,0.1c-1.7,0.5-3.1,1.8-3.7,3.5c-0.3,1-0.4,2-0.3,3.1
		c0.1,0.6,0.2,1.3,0.4,1.8c0.2,0.4,0.1,0.5,0.6,0.5C11.3,17.5,11.7,17.5,12,17.5 M15.5,10.4c3.8,0,4.5,7.7,0.6,7.7
		C12.3,18.1,11.5,10.4,15.5,10.4"/>
	<path fill="#FFFFDE" d="M13,24.7c0.5-0.9,0.7-2,0.1-3c-0.5-0.7-1.8-1.5-2.5-0.8c-0.9,0.8-1.2,1.7-0.2,2.6
		C11.1,24.2,12.1,24.5,13,24.7"/>
	<path fill="#FFFFDE" d="M19.4,22.8c-0.6-0.1-1.2-0.1-1.9-0.2c0,0.8-0.1,1.7-0.4,2.5c0.9,0.1,2,0.1,2.5,1c0.4,0.7,0.5,1.5,0.2,2.2
		c-0.8,2-2.9,3.3-5,3.7c-0.7,0.2-2.5,0.6-3-0.4c-0.4-0.8,0.7-1.9,1.1-2.5c1.3-1.6,3.4-3.2,3.8-5.4c0.4-2.2-0.7-4.3-2.6-5.3
		c-1.8-0.9-4.3-0.4-6,0.4c-2.1,1.1-3.9,2.8-5,4.8c-1.2,2.1-1.6,4.7-1.8,7c-0.5-1.7-1.3-4-0.1-5.6c0.3-0.4,0.8-0.6,1.1-1
		C2.7,24,2.8,23.5,3,23.1c-2.1,0.9-3.2,2.3-3,4.7c0.2,1.7,0.8,3.4,1.3,5.1c0.5-1.1,1-2.2,1.7-3.1c0.7-1,1.8-1.9,2.5-2.9
		c0.6-0.9,0.7-2,0.1-2.9c-0.4-0.5-0.7-0.4-0.3-1c1.4-1.9,4-3.2,6.4-2.8c1.5,0.3,2.6,1.7,2.4,3.2c-0.3,2.4-2.5,4.3-3.8,6.2
		c-0.7,1.1-2.2,3.1-0.7,4.1c1,0.6,2.3,0.6,3.5,0.6c1.4-0.1,2.8-0.3,4-0.8c2.2-0.8,4.1-2.3,5.2-4.4C23.7,26.3,22.7,23.3,19.4,22.8"/>
	<path fill="#FFFFDE" d="M25.1,10.4c0-0.9,1.8-1.4,2.5-1.6c1.3-0.4,2.6-0.5,4-0.4c2.3,0.2,3.3,1.9,3.4,4c0.1,2.2,0,4.4,0,6.5
		c0,0.6-0.6,4.9,1,4.6c0,0.4,0,0.9,0,1.3c-0.3,0.4-0.8,0.6-1.2,0.7c-1.1,0.3-2.1-0.3-2.7-1.2c-1.4,1.4-3.9,1.7-5.7,0.8
		c-1.9-1-2.5-3.2-2.2-5.2c0.6-3.5,4.8-5.1,8-4.4c0-1.1,0.5-3.8-0.8-4.3c-1.2-0.5-2.9,0.1-4,0.6c-0.4,0.2-1.4,0.8-1.7,0.3
		C25.3,11.6,25.1,11,25.1,10.4 M32.1,20c0-0.4,0-0.9,0-1.3c0-0.5,0.2-1.2-0.3-1.2c-1.6-0.1-3.7,0.2-4.4,2c-0.5,1.3-0.3,3.6,1.4,3.8
		c0.9,0.1,1.8-0.1,2.5-0.6C32.2,22.1,32.1,21,32.1,20"/>
	<path fill="#FFFFDE" d="M42.1,12.4c0,2.5,0,5,0,7.6c0,1.2,0,2.3,0,3.5c0,0.5,0.1,1.4-0.5,1.7c-0.7,0.4-1.8,0.2-2.6,0.2
		c0.1-3.4,0.1-6.8,0.1-10.1c0-1,0.1-2,0-3c0-0.5-0.1-1-0.2-1.5c-0.1-0.5-0.4-0.7,0.2-1c1-0.6,2-0.8,2.4,0.5c0.9-0.8,2.1-1.4,3.3-1.6
		c0.7-0.1,2.5,0,2.4,1.1c0,0.5-0.2,1.1-0.4,1.6c-0.2,0.5-0.8,0.3-1.3,0.2C44.3,11,42.9,11.6,42.1,12.4"/>
	<path fill="#FFFFDE" d="M61.3,23.6c0,0.4,0,0.9,0,1.3c-0.3,0.4-0.8,0.6-1.2,0.7c-1.1,0.2-2.1-0.3-2.7-1.1c-1.7,1.6-4.5,1.6-6.5,0.5
		c-2-1.1-2.8-3.3-3-5.5c-0.3-2.9,0-6.1,1.8-8.5c1.7-2.3,5.3-3.6,7.8-2c0-1.2,0-2.3,0-3.5c0-0.7,0-1.4,0-2.2c0-1-0.5-2.5,0.6-3
		c0.5-0.2,1-0.2,1.5-0.3c0.7,0,0.7,0,0.8,0.7c0.1,0.8,0.1,1.7,0.1,2.5c0,1,0,1.9,0,2.9c0,2.8,0,5.6,0,8.3c0,1.7,0,3.4,0,5.1
		C60.3,20.1,59.8,23.9,61.3,23.6 M57.3,11.4c-1.1-0.9-2.9-0.9-4.1-0.2C52,12,51.4,13.6,51.1,15c-0.5,2.6-0.5,7.9,3.2,8.2
		c0.9,0.1,1.8-0.1,2.5-0.6c0.7-0.5,0.5-1.7,0.5-2.5c0-0.8,0-1.5,0-2.3C57.3,15.6,57.3,13.5,57.3,11.4z"/>
	<path fill="#FFFFDE" d="M74.4,22.3c0.3,1,0.3,2-0.7,2.6c-1,0.6-2.3,0.8-3.4,0.8c-2.4,0.1-4.9-0.7-6-3c-1.1-2.3-1.1-5.1-0.8-7.6
		c0.2-1.9,0.8-3.8,2.2-5.2c2.4-2.3,7.2-2.3,8.8,0.9c0.5,1,0.6,2,0.7,3.1c0,0.7,0,1.4,0,2.1c-0.1,0.8-0.1,1.1-0.9,1.3
		c-2.4,0.9-5.4,0.8-7.8,0.6c0,1.7,0.3,3.7,1.9,4.6C70.1,23.6,72.7,23.2,74.4,22.3 M69.4,10.7c-2.3,0.3-2.8,3.4-2.9,5.2
		c0.7,0,1.4,0,2.1,0c0.6,0,3.4,0.3,3.6-0.5c0.3-1.1,0.1-2.5-0.4-3.5C71.3,11.1,70.3,10.4,69.4,10.7"/>
	<path fill="#FFFFDE" d="M81.1,12.4c0,2.5,0,5,0,7.5c0,1.1,0,2.2,0,3.3c0,0.5,0,1.5-0.5,1.8c-0.7,0.5-1.9,0.3-2.6,0.3
		C78,22,78,18.6,78,15.3c0-1.1,0.1-2.3,0-3.4c0-0.5-0.1-1-0.2-1.4c-0.2-0.6-0.1-0.6,0.4-0.9c0.9-0.5,1.9-0.7,2.2,0.6
		c1.8-1.5,4.4-2.2,6.8-1.5c1.6,0.5,2.4,1.9,2.7,3.5c0.4,2.5,0.2,5.2,0.2,7.8c0,1.3,0,2.6,0,3.8c0,0.3,0.2,1.1-0.1,1.3
		c-0.2,0.2-0.6,0.2-0.8,0.2c-0.5,0.1-1,0.1-1.5,0.1c-0.7,0-0.6-0.9-0.6-1.4c0-0.3,0-0.6,0-0.8c0-2.7,0-5.5,0-8.2
		c0-1.1,0.1-2.5-0.8-3.4C84.6,10.2,82.2,11.2,81.1,12.4"/>
</g>
</svg>
