<!--?xml version="1.0" standalone="no"?--><svg version="1.0" xmlns="http://www.w3.org/2000/svg" width="300.000000pt" height="191.000000pt" viewBox="0 0 300.000000 191.000000" preserveAspectRatio="xMidYMid meet">
<metadata>
  <rdf:rdf xmlns:rdf="http://www.w3.org/1999/02/22-rdf-syntax-ns#" xmlns:rdfs="http://www.w3.org/2000/01/rdf-schema#" xmlns:dc="http://purl.org/dc/elements/1.1/">
    <rdf:description dc:title="Container-cruise" dc:publisher="Hiox" dc:date="2016-02-19" dc:format="image/svg+xml" dc:language="en">
      <dc:creator>
        <rdf:bag>
          <rdf:li>svgimages.com</rdf:li>
        </rdf:bag>
      </dc:creator>
    </rdf:description>
  </rdf:rdf>
</metadata>
<g transform="translate(0.000000,191.000000) scale(0.100000,-0.100000)" fill="#3B6CC2" stroke="none">
<path fill="none" stroke="#ffffff" stroke-width="5" stroke-linecap="round" stroke-linejoin="round" stroke-miterlimit="10" d="M830 1615 l-5 -110 -70 -5 -70 -5 -1 -33 c-1 -26 4 -36 27 -47 l27
-15 1 -160 c1 -88 -2 -160 -7 -160 -4 0 -52 7 -107 15 -158 23 -208 20 -274
-15 -31 -17 -90 -59 -131 -95 -71 -62 -97 -101 -99 -150 -2 -34 93 -170 176
-252 106 -105 160 -204 188 -343 l13 -65 1 51 c1 62 -28 160 -69 231 -16 28
-69 93 -116 144 -93 100 -151 182 -160 227 -5 24 2 35 53 83 32 30 78 67 103
82 49 28 107 46 97 30 -4 -5 9 -50 29 -99 70 -180 165 -473 173 -535 7 -60 8
-62 15 -29 6 28 -6 82 -57 260 -64 224 -94 373 -82 410 5 15 15 20 41 20 69 0
1000 -165 1107 -196 29 -9 19 12 -19 41 -38 29 -50 32 -491 116 l-173 32 0
118 c0 114 1 118 23 122 l22 4 -22 2 c-21 1 -23 6 -23 60 0 43 4 60 15 65 10
3 15 19 15 45 l0 40 -67 3 -68 3 -5 110 -6 110 -4 -110z m-37 -182 c-18 -2
-48 -2 -65 0 -18 2 -4 4 32 4 36 0 50 -2 33 -4z m110 0 c-13 -2 -33 -2 -45 0
-13 2 -3 4 22 4 25 0 35 -2 23 -4z m54 1 c-3 -3 -12 -4 -19 -1 -8 3 -5 6 6 6
11 1 17 -2 13 -5z m-32 -84 l0 -55 -82 -3 -83 -3 0 61 0 61 83 -3 82 -3 0 -55z
m5 -186 l0 -117 -42 7 c-24 4 -62 10 -85 13 l-43 6 0 103 0 104 85 0 85 0 0
-116z" id="node1" class="node" stroke-width="20"></path>
<path fill="none" stroke="#ffffff" stroke-width="5" stroke-linecap="round" stroke-linejoin="round" stroke-miterlimit="10" d="M1237 1683 c-4 -3 -7 -67 -7 -141 0 -75 3 -133 6 -129 4 3 6 60 5
127 -2 100 1 121 13 126 9 3 13 10 10 15 -6 11 -18 12 -27 2z" id="node2" class="node"></path>
<path fill="none" stroke="#ffffff" stroke-width="5" stroke-linecap="round" stroke-linejoin="round" stroke-miterlimit="10" d="M1300 1550 c0 -154 -18 -160 -23 -7 l-3 112 -2 -123 c-2 -123 -2
-123 21 -120 21 3 22 7 25 126 l3 123 44 -32 c25 -18 45 -36 45 -41 0 -4 5 -8
10 -8 21 0 8 19 -37 54 -78 61 -83 56 -83 -84z" id="node3" class="node"></path>
<path fill="none" stroke="#ffffff" stroke-width="5" stroke-linecap="round" stroke-linejoin="round" stroke-miterlimit="10" d="M1408 1450 c-3 -16 -1 -30 4 -30 4 0 8 14 8 30 0 17 -2 30 -4 30 -2
0 -6 -13 -8 -30z" id="node4" class="node"></path>
<path fill="none" stroke="#ffffff" stroke-width="5" stroke-linecap="round" stroke-linejoin="round" stroke-miterlimit="10" d="M1114 1398 c-3 -4 17 -8 43 -10 47 -3 47 -3 59 -48 l12 -45 1 48 1
47 45 0 c44 0 46 -2 65 -42 l19 -43 0 43 1 42 49 0 48 0 10 -42 11 -43 1 51 1
51 -181 -1 c-99 -1 -183 -4 -185 -8z" id="node5" class="node"></path>
<path fill="none" stroke="#ffffff" stroke-width="5" stroke-linecap="round" stroke-linejoin="round" stroke-miterlimit="10" d="M355 1380 c3 -5 28 -10 55 -10 l49 0 4 -42 c3 -41 4 -41 5 10 l2 52
-61 0 c-37 0 -58 -4 -54 -10z" id="node6" class="node"></path>
<path fill="none" stroke="#ffffff" stroke-width="5" stroke-linecap="round" stroke-linejoin="round" stroke-miterlimit="10" d="M1580 1351 c0 -5 21 -11 47 -13 46 -3 48 -4 60 -43 l12 -40 -2 50 -2
50 -57 3 c-34 2 -58 -1 -58 -7z" id="node7" class="node"></path>
<path fill="none" stroke="#ffffff" stroke-width="5" stroke-linecap="round" stroke-linejoin="round" stroke-miterlimit="10" d="M1731 1323 c0 -4 4 -17 9 -28 8 -19 9 -19 9 2 1 12 -3 25 -9 28 -5 3
-10 3 -9 -2z" id="node8" class="node"></path>
<path fill="none" stroke="#ffffff" stroke-width="5" stroke-linecap="round" stroke-linejoin="round" stroke-miterlimit="10" d="M1045 1260 c-38 -4 -63 -8 -55 -9 8 -2 20 -4 25 -6 6 -1 22 -3 37 -3
23 -2 28 -8 36 -44 l10 -43 1 48 1 48 52 -3 c50 -3 52 -4 64 -43 l12 -40 1 45
1 45 49 -3 c46 -4 50 -6 56 -33 10 -43 25 -46 25 -5 l0 36 49 0 48 0 10 -42
11 -43 1 53 1 52 -182 -2 c-101 -1 -214 -5 -253 -8z" id="node9" class="node"></path>
<path fill="none" stroke="#ffffff" stroke-width="5" stroke-linecap="round" stroke-linejoin="round" stroke-miterlimit="10" d="M355 1250 c-3 -5 18 -10 47 -12 l53 -3 6 -40 6 -40 2 43 1 43 53 -3
52 -3 12 -45 11 -45 1 48 1 47 48 0 c47 0 49 -1 59 -37 l11 -38 -1 45 -2 45
-177 2 c-98 1 -180 -2 -183 -7z" id="node10" class="node"></path>
<path fill="none" stroke="#ffffff" stroke-width="5" stroke-linecap="round" stroke-linejoin="round" stroke-miterlimit="10" d="M1580 1220 c0 -5 22 -10 49 -10 l50 0 9 -42 10 -43 1 53 1 52 -60 0
c-33 0 -60 -4 -60 -10z" id="node11" class="node"></path>
<path fill="none" stroke="#ffffff" stroke-width="5" stroke-linecap="round" stroke-linejoin="round" stroke-miterlimit="10" d="M1935 1200 c3 -5 24 -10 45 -10 36 0 39 -2 43 -32 3 -29 4 -27 5 10
l2 42 -51 0 c-31 0 -48 -4 -44 -10z" id="node12" class="node"></path>
<path fill="none" stroke="#ffffff" stroke-width="5" stroke-linecap="round" stroke-linejoin="round" stroke-miterlimit="10" d="M1736 1187 c3 -10 9 -15 12 -12 3 3 0 11 -7 18 -10 9 -11 8 -5 -6z" id="node13" class="node"></path>
<path fill="none" stroke="#ffffff" stroke-width="5" stroke-linecap="round" stroke-linejoin="round" stroke-miterlimit="10" d="M2071 1163 c7 -12 15 -20 18 -17 3 2 -3 12 -13 22 -17 16 -18 16 -5
-5z" id="node14" class="node"></path>
<path fill="none" stroke="#ffffff" stroke-width="5" stroke-linecap="round" stroke-linejoin="round" stroke-miterlimit="10" d="M1236 1132 c-4 -3 -63 -5 -131 -4 -79 1 -125 -2 -125 -8 0 -5 22 -10
49 -10 l50 0 9 -42 10 -43 1 43 1 43 52 -3 c50 -3 52 -4 64 -43 l12 -40 1 48
1 47 50 0 c48 0 49 -1 56 -35 8 -43 24 -46 24 -5 0 29 1 30 48 30 47 0 49 -1
59 -37 l10 -38 2 48 1 47 -67 1 c-38 0 -91 2 -119 4 -29 2 -55 1 -58 -3z" id="node15" class="node"></path>
<path fill="none" stroke="#ffffff" stroke-width="5" stroke-linecap="round" stroke-linejoin="round" stroke-miterlimit="10" d="M1930 1091 c0 -6 19 -11 42 -13 39 -3 44 -6 49 -33 6 -27 7 -26 8 13
l1 42 -50 0 c-27 0 -50 -4 -50 -9z" id="node16" class="node"></path>
<path fill="none" stroke="#ffffff" stroke-width="5" stroke-linecap="round" stroke-linejoin="round" stroke-miterlimit="10" d="M1580 1080 c0 -5 22 -10 49 -10 l48 0 10 -42 11 -43 1 53 1 52 -60 0
c-33 0 -60 -4 -60 -10z" id="node17" class="node"></path>
<path fill="none" stroke="#ffffff" stroke-width="5" stroke-linecap="round" stroke-linejoin="round" stroke-miterlimit="10" d="M2156 1057 c3 -10 9 -15 12 -12 3 3 0 11 -7 18 -10 9 -11 8 -5 -6z" id="node18" class="node"></path>
<path fill="none" stroke="#ffffff" stroke-width="5" stroke-linecap="round" stroke-linejoin="round" stroke-miterlimit="10" d="M1737 1040 c3 -11 7 -20 9 -20 2 0 4 9 4 20 0 11 -4 20 -9 20 -5 0
-7 -9 -4 -20z" id="node19" class="node"></path>
<path fill="none" stroke="#ffffff" stroke-width="5" stroke-linecap="round" stroke-linejoin="round" stroke-miterlimit="10" d="M2080 1053 c0 -4 5 -15 10 -23 8 -13 10 -13 10 2 0 9 -4 20 -10 23
-5 3 -10 3 -10 -2z" id="node20" class="node"></path>
<path d="M1780 1030 c0 -5 20 -10 44 -10 45 0 45 0 54 -42 l10 -43 1 53 1 52
-55 0 c-30 0 -55 -4 -55 -10z" id="node21" class="node"></path>
<path fill="none" stroke="#ffffff" stroke-width="5" stroke-linecap="round" stroke-linejoin="round" stroke-miterlimit="10" d="M1943 997 c9 -8 17 -20 17 -26 0 -7 5 -9 10 -6 13 8 4 22 -23 35 -20
10 -20 10 -4 -3z" id="node22" class="node"></path>
<path fill="none" stroke="#ffffff" stroke-width="5" stroke-linecap="round" stroke-linejoin="round" stroke-miterlimit="10" d="M2202 973 c31 -4 37 -8 41 -31 4 -24 4 -24 6 6 1 32 0 32 -41 30
l-43 -1 37 -4z" id="node23" class="node"></path>
<path fill="none" stroke="#ffffff" stroke-width="5" stroke-linecap="round" stroke-linejoin="round" stroke-miterlimit="10" d="M2151 953 c7 -10 15 -20 16 -22 2 -2 3 3 3 11 0 9 -7 19 -16 22 -15
6 -15 4 -3 -11z" id="node24" class="node"></path>
<path fill="none" stroke="#ffffff" stroke-width="5" stroke-linecap="round" stroke-linejoin="round" stroke-miterlimit="10" d="M1580 950 c0 -5 22 -10 49 -10 l48 0 10 -42 11 -43 1 53 1 52 -60 0
c-33 0 -60 -4 -60 -10z" id="node25" class="node"></path>
<path fill="none" stroke="#ffffff" stroke-width="5" stroke-linecap="round" stroke-linejoin="round" stroke-miterlimit="10" d="M2276 947 c3 -10 9 -15 12 -12 3 3 0 11 -7 18 -10 9 -11 8 -5 -6z" id="node26" class="node"></path>
<path fill="none" stroke="#ffffff" stroke-width="5" stroke-linecap="round" stroke-linejoin="round" stroke-miterlimit="10" d="M2071 924 c9 -10 19 -26 22 -34 4 -10 6 -8 6 7 1 13 -8 27 -21 34
-22 11 -22 11 -7 -7z" id="node27" class="node"></path>
<path fill="none" stroke="#ffffff" stroke-width="5" stroke-linecap="round" stroke-linejoin="round" stroke-miterlimit="10" d="M1737 909 c4 -13 8 -18 11 -10 2 7 -1 18 -6 23 -8 8 -9 4 -5 -13z" id="node28" class="node"></path>
<path fill="none" stroke="#ffffff" stroke-width="5" stroke-linecap="round" stroke-linejoin="round" stroke-miterlimit="10" d="M1776 911 c-4 -6 13 -11 41 -13 46 -3 48 -4 60 -43 l12 -40 -2 50 -2
50 -52 3 c-28 2 -54 -1 -57 -7z" id="node29" class="node"></path>
<path fill="none" stroke="#ffffff" stroke-width="5" stroke-linecap="round" stroke-linejoin="round" stroke-miterlimit="10" d="M1943 876 c9 -7 17 -19 17 -27 0 -9 3 -10 11 -2 15 15 5 29 -23 36
-21 5 -21 5 -5 -7z" id="node30" class="node"></path>
<path fill="none" stroke="#ffffff" stroke-width="5" stroke-linecap="round" stroke-linejoin="round" stroke-miterlimit="10" d="M2200 881 c25 -4 36 -12 41 -31 6 -23 7 -22 8 8 1 31 0 32 -41 31
-43 -2 -43 -2 -8 -8z" id="node31" class="node"></path>
<path fill="none" stroke="#ffffff" stroke-width="5" stroke-linecap="round" stroke-linejoin="round" stroke-miterlimit="10" d="M2291 872 c-14 -5 -15 -32 0 -32 5 0 7 5 4 10 -4 6 6 10 24 10 20 0
31 -6 35 -17 3 -11 4 -7 3 7 -2 20 -8 25 -28 25 -15 1 -31 -1 -38 -3z" id="node32" class="node"></path>
<path fill="none" stroke="#ffffff" stroke-width="5" stroke-linecap="round" stroke-linejoin="round" stroke-miterlimit="10" d="M2156 847 c3 -10 9 -15 12 -12 3 3 0 11 -7 18 -10 9 -11 8 -5 -6z" id="node33" class="node"></path>
<path fill="none" stroke="#ffffff" stroke-width="5" stroke-linecap="round" stroke-linejoin="round" stroke-miterlimit="10" d="M1643 813 c8 -16 22 -59 32 -98 22 -81 33 -61 15 29 -17 89 -19 96
-41 96 -18 0 -18 -2 -6 -27z" id="node34" class="node"></path>
<path fill="none" stroke="#ffffff" stroke-width="5" stroke-linecap="round" stroke-linejoin="round" stroke-miterlimit="10" d="M1690 796 c0 -20 54 -36 124 -36 52 -1 67 -5 100 -30 30 -22 50 -30
82 -30 31 0 59 -10 102 -35 33 -20 77 -39 98 -42 23 -4 76 -31 128 -65 49 -32
91 -56 94 -53 7 6 14 1 -95 74 -51 33 -103 61 -115 61 -13 0 -57 20 -98 45
-43 26 -88 45 -105 45 -16 0 -48 12 -70 25 -30 19 -54 25 -96 25 -31 0 -76 7
-99 15 -52 18 -50 18 -50 1z" id="node35" class="node"></path>
<path fill="none" stroke="#ffffff" stroke-width="5" stroke-linecap="round" stroke-linejoin="round" stroke-miterlimit="10" d="M2083 785 c7 -13 14 -20 15 -14 5 14 -6 39 -17 39 -5 0 -4 -11 2 -25z" id="node36" class="node"></path>
<path fill="none" stroke="#ffffff" stroke-width="5" stroke-linecap="round" stroke-linejoin="round" stroke-miterlimit="10" d="M2170 790 c0 -5 15 -10 34 -10 28 0 35 -4 39 -22 3 -17 5 -14 6 10 1
31 0 32 -39 32 -22 0 -40 -4 -40 -10z" id="node37" class="node"></path>
<path d="M2295 790 c3 -5 17 -10 30 -10 14 0 25 -7 28 -17 3 -11 5 -7 6 10 1
25 -2 27 -35 27 -21 0 -33 -4 -29 -10z" id="node38" class="node"></path>
<path fill="none" stroke="#ffffff" stroke-width="5" stroke-linecap="round" stroke-linejoin="round" stroke-miterlimit="10" d="M2280 760 c0 -5 5 -10 11 -10 5 0 7 5 4 10 -3 6 -8 10 -11 10 -2 0
-4 -4 -4 -10z" id="node39" class="node"></path>
<path fill="none" stroke="#ffffff" stroke-width="5" stroke-linecap="round" stroke-linejoin="round" stroke-miterlimit="10" d="M2157 739 c4 -13 8 -18 11 -10 2 7 -1 18 -6 23 -8 8 -9 4 -5 -13z" id="node40" class="node"></path>
<path fill="none" stroke="#ffffff" stroke-width="2" stroke-linecap="round" stroke-linejoin="round" stroke-miterlimit="10" d="M2290 721 c0 -6 13 -11 29 -11 20 0 31 -6 35 -17 3 -11 4 -7 3 7 -2
20 -8 26 -34 28 -19 2 -33 -1 -33 -7z" id="node41" class="node"></path>
<path fill="none" stroke="#ffffff" stroke-width="5" stroke-linecap="round" stroke-linejoin="round" stroke-miterlimit="10" d="M2199 691 c21 -4 37 -14 42 -26 7 -17 8 -16 8 8 1 25 -1 27 -41 26
-42 -2 -43 -2 -9 -8z" id="node42" class="node"></path>
<path fill="none" stroke="#ffffff" stroke-width="5" stroke-linecap="round" stroke-linejoin="round" stroke-miterlimit="10" d="M2281 658 c9 -21 19 -28 40 -28 18 0 29 -6 32 -17 4 -14 5 -12 6 5 1
17 -4 22 -25 22 -14 0 -34 10 -45 23 l-19 22 11 -27z" id="node43" class="node"></path>
<path fill="none" stroke="#ffffff" stroke-width="2" stroke-linecap="round" stroke-linejoin="round" stroke-miterlimit="10" d="M1690 612 c0 -5 37 -13 83 -16 46 -4 130 -22 192 -41 160 -49 361
-105 377 -104 22 1 -311 108 -417 134 -117 28 -235 42 -235 27z" id="node44" class="node"></path>
<path fill="none" stroke="#ffffff" stroke-width="5" stroke-linecap="round" stroke-linejoin="round" stroke-miterlimit="10" d="M2384 351 c-14 -23 -29 -41 -33 -41 -3 0 -85 -14 -181 -30 -294 -51
-428 -61 -895 -66 -384 -5 -441 -7 -533 -26 -56 -11 -101 -23 -98 -25 6 -6
983 25 1166 38 199 13 548 47 560 54 5 3 12 20 15 38 4 17 14 45 22 60 23 45
7 43 -23 -2z" id="node45" class="node"></path>

<path fill="none" stroke="#ffffff" stroke-width="5" stroke-linecap="round" stroke-linejoin="round" stroke-miterlimit="10" d="M2160 208 c-68 -5 -127 -11 -129 -14 -14 -14 27 -13 205 4 210 21
158 27 -76 10z" id="node47" class="node"></path>
<path fill="none" stroke="#ffffff" stroke-width="5" stroke-linecap="round" stroke-linejoin="round" stroke-miterlimit="10" d="M2360 190 c-52 -5 -245 -18 -427 -31 -257 -17 -333 -26 -333 -36 0
-7 7 -13 17 -13 24 0 935 80 958 84 37 6 -119 3 -215 -4z" id="node48" class="node"></path>
</g>
    
</svg>