<?xml version="1.0" encoding="utf-8"?>
<!-- Generator: Adobe Illustrator 15.0.0, SVG Export Plug-In . SVG Version: 6.00 Build 0)  -->
<svg version="1.2" baseProfile="tiny" id="Layer_1" xmlns="http://www.w3.org/2000/svg" xmlns:xlink="http://www.w3.org/1999/xlink"
	 x="0px" y="0px" width="396.17px" height="305.174px" viewBox="0 0 396.17 305.174" overflow="inherit" xml:space="preserve">
<g>
	<path fill="#372D3B" d="M1,25.975C1,12.402,12.401,1,25.974,1c57.684,0,115.367,0,173.05,0c13.573,0,24.974,11.402,24.974,24.975
		c0,57.684,0,115.367,0,173.051c0,13.572-11.402,24.973-24.974,24.973c-57.684,0-115.367,0-173.05,0
		C12.402,223.998,1,212.598,1,199.025C1,141.342,1,83.658,1,25.975C1,19.107,1,25.975,1,25.975z"/>
	<path fill="none" stroke="#d94362" stroke-width="2" stroke-linecap="round" stroke-linejoin="round" stroke-miterlimit="10" d="
		M1,25.975C1,12.402,12.401,1,25.974,1c57.684,0,115.367,0,173.05,0c13.573,0,24.974,11.402,24.974,24.975
		c0,57.684,0,115.367,0,173.051c0,13.572-11.402,24.973-24.974,24.973c-57.684,0-115.367,0-173.05,0
		C12.402,223.998,1,212.598,1,199.025C1,141.342,1,83.658,1,25.975C1,19.107,1,25.975,1,25.975z"/>
	<path fill="#372D3B" d="M172.172,106.15c0-13.572,11.401-24.975,24.974-24.975c57.684,0,115.367,0,173.051,0
		c13.572,0,24.974,11.402,24.974,24.975c0,57.684,0,115.366,0,173.05c0,13.572-11.401,24.974-24.974,24.974
		c-57.684,0-115.367,0-173.051,0c-13.572,0-24.974-11.401-24.974-24.974C172.172,221.517,172.172,163.834,172.172,106.15
		C172.172,99.283,172.172,106.15,172.172,106.15z"/>
	<path fill="none" stroke="#d94362" stroke-width="2" stroke-linecap="round" stroke-linejoin="round" stroke-miterlimit="10" d="
		M172.172,106.15c0-13.572,11.401-24.975,24.974-24.975c57.684,0,115.367,0,173.051,0c13.572,0,24.974,11.402,24.974,24.975
		c0,57.684,0,115.366,0,173.05c0,13.572-11.401,24.974-24.974,24.974c-57.684,0-115.367,0-173.051,0
		c-13.572,0-24.974-11.401-24.974-24.974C172.172,221.517,172.172,163.834,172.172,106.15
		C172.172,99.283,172.172,106.15,172.172,106.15z"/>
	<path fill="none" stroke="#ffffde" stroke-width="2" stroke-miterlimit="10" d="M63.889,67.485c0-9.062,7.244-13.315,15.157-8.9
		c27.172,15.154,54.345,30.308,81.517,45.462c7.885,4.397,7.885,12.509,0,16.906c-27.172,15.154-54.345,30.309-81.517,45.463
		c-7.915,4.411-15.157,0.158-15.157-8.903C63.889,127.503,63.889,97.495,63.889,67.485C63.889,62.713,63.889,67.485,63.889,67.485z"
		/>
	<path fill="none" stroke="#ffffde" stroke-width="2" stroke-miterlimit="10" d="M63.889,67.485c0-9.062,7.244-13.315,15.157-8.9
		c27.172,15.154,54.345,30.308,81.517,45.462c7.885,4.397,7.885,12.509,0,16.906c-27.172,15.154-54.345,30.309-81.517,45.463
		c-7.915,4.411-15.157,0.158-15.157-8.903C63.889,127.503,63.889,97.495,63.889,67.485C63.889,62.713,63.889,67.485,63.889,67.485z"
		/>
	<path fill="none" stroke="#ffffde" stroke-width="2" stroke-miterlimit="10" d="M71.689,57.417
		c24.189,24.039,48.378,48.077,72.568,72.115"/>
	<path fill="none" stroke="#ffffde" stroke-width="2" stroke-miterlimit="10" d="M71.927,167.344
		c24.11-24.104,48.221-48.208,72.331-72.312"/>
	<path fill="none" stroke="#ffffde" stroke-width="2" stroke-miterlimit="10" d="M347.694,192.675
		c0,34.893-29.131,64.023-64.023,64.023s-64.022-29.132-64.024-64.023c0-34.892,29.133-64.022,64.024-64.022
		S347.694,157.783,347.694,192.675C347.694,210.354,347.694,174.995,347.694,192.675z"/>
	<path fill="none" stroke="#ffffde" stroke-width="2" stroke-miterlimit="10" d="M260.109,198.534c-4.61,0-9.221,0-13.831,0
		c-1.083-0.101-1.676-0.691-1.779-1.773c0-3.544,0-7.087,0-10.631c0.104-1.08,0.698-1.671,1.779-1.771c7.35,0,14.7,0,22.05,0
		 M257.88,218.531c-1.998,1.354-3.996,2.707-5.994,4.061c-0.881,0.503-1.303,0.248-1.267-0.766c0.266-2.316,0.532-4.634,0.8-6.95
		c0.215-1.02,0.797-1.313,1.746-0.88c1.547,0.883,3.093,1.767,4.64,2.65C258.657,217.242,258.683,217.87,257.88,218.531
		C257.88,218.531,258.284,218.257,257.88,218.531z M259.32,214.613c-1.547-0.884-3.093-1.768-4.64-2.651
		c-0.889-0.624-1.106-1.43-0.653-2.416c7.161-12.415,14.322-24.83,21.483-37.245c0.633-0.885,1.444-1.102,2.435-0.651
		c1.547,0.882,3.093,1.764,4.64,2.646c0.885,0.628,1.103,1.435,0.654,2.421c-7.161,12.416-14.323,24.831-21.484,37.247
		C261.121,214.843,260.31,215.06,259.32,214.613C259.32,214.613,259.745,214.854,259.32,214.613z M299.208,198.534
		c-9.449,0-18.897,0-28.347,0 M278.78,184.358c4.665,0,9.331,0,13.996,0 M302.311,202.763c-6.203-3.092-10.841-21.55-13.479-27.72
		c-0.943-2.205-10.28-19.935-7.219-21.452c2.15-1.075,11.05,16.273,12.005,17.775c5.513,8.68,9.842,18.044,14.836,27.015
		c0.454,2.116-0.322,3.542-2.329,4.279C304.895,203.425,303.623,203.459,302.311,202.763
		C301.382,202.3,303.239,203.223,302.311,202.763z M308.391,212.53c-0.932-1.466-1.863-2.932-2.796-4.396
		c-0.541-1.044-0.321-1.886,0.66-2.525c0.888-0.454,1.776-0.909,2.664-1.363c1.105-0.425,1.977-0.136,2.614,0.866
		c0.735,1.407,1.471,2.814,2.205,4.222c0.458,1.102,0.21,2.009-0.744,2.72c-0.635,0.379-1.27,0.757-1.905,1.134
		C310.016,213.691,309.116,213.473,308.391,212.53C308.391,212.53,308.679,212.983,308.391,212.53z M318.677,224.061
		c-2.343-1.603-4.688-3.199-7.038-4.791c-1.38-1.913-1.265-3.546,0.348-4.898C318.514,210.71,319.442,220.14,318.677,224.061
		C318.385,223.13,318.677,224.061,318.677,224.061z M301.456,184.358c6.535,0,13.071,0,19.606,0c1.081,0.102,1.675,0.691,1.78,1.771
		c0,3.544,0,7.087,0,10.631c-0.104,1.082-0.696,1.673-1.779,1.773c-4.203,0-8.407,0-12.61,0"/>
</g>
</svg>
