<?xml version="1.0" encoding="utf-8"?>
<!-- Generator: Adobe Illustrator 15.0.0, SVG Export Plug-In . SVG Version: 6.00 Build 0)  -->
<svg version="1.2" baseProfile="tiny" id="Layer_1" xmlns="http://www.w3.org/2000/svg" xmlns:xlink="http://www.w3.org/1999/xlink"
	 x="0px" y="0px" width="399.416px" height="290.309px" viewBox="0 0 399.416 290.309" overflow="inherit" xml:space="preserve">
<g>
	<path fill="none" stroke="#ffffde" stroke-width="2" stroke-miterlimit="10" d="M38,252c-9.04,0-18.08,0-27.119,0
		c-5.911-0.412-9.205-3.551-9.881-9.417C1,164.957,1,87.332,1,9.706C1.77,3.996,5.064,1.094,10.881,1c108.844,0,217.688,0,326.531,0
		c5.551,0.244,8.413,3.146,8.588,8.706c0,39.431,0,78.863,0,118.294"/>
	<path fill="none" stroke="#ffffde" stroke-width="2" stroke-miterlimit="10" d="M272,252c-58,0-116,0-174,0"/>
	<path fill="none" stroke="#ffffde" stroke-width="2" stroke-miterlimit="10" d="M98,218c58,0,116,0,174,0"/>
	<path fill="none" stroke="#ffffde" stroke-width="2" stroke-miterlimit="10" d="M2,218c11.667,0,23.333,0,35,0"/>
	<path fill="none" stroke="#ffffde" stroke-width="2" stroke-miterlimit="10" d="M37,204c-7,0-14,0-21,0c0-63.667,0-127.333,0-191
		c106,0,212,0,318,0c0,38.667,0,77.333,0,116"/>
	<path fill="none" stroke="#ffffde" stroke-width="2" stroke-miterlimit="10" d="M272,204c-58,0-116,0-174,0"/>
	<path fill="none" stroke="#ffffde" stroke-width="2" stroke-miterlimit="10" d="M124,251c0,9.667,0,19.333,0,29c34,0,68,0,102,0
		c0-9.667,0-19.333,0-29"/>
	<path fill="none" stroke="#ffffde" stroke-width="2" stroke-miterlimit="10" d="M237.369,289c0-6.817-9.031-9-13.904-9
		c-32.293,0-64.586,0-96.88,0c-4.874,0-13.905,2.181-13.905,9C154.243,289,195.806,289,237.369,289
		C237.369,286.5,237.369,289,237.369,289z"/>
	<path fill="none" stroke="#d94362" stroke-width="2" stroke-miterlimit="10" d="M316.879,47.947c-94.569,0-189.139,0-283.708,0
		c0-5.36,0-10.721,0-16.081c94.569,0,189.139,0,283.708,0C316.879,37.227,316.879,42.587,316.879,47.947L316.879,47.947z"/>
	<path fill="none" stroke="#d94362" stroke-width="2" stroke-miterlimit="10" d="M92.609,151.336c-19.813,0-39.626,0-59.439,0
		c0-31.333,0-62.665,0-93.997c19.813,0,39.626,0,59.439,0C92.609,88.671,92.609,120.003,92.609,151.336L92.609,151.336z"/>
	<path fill="none" stroke="#d94362" stroke-width="2" stroke-miterlimit="10" d="M272.412,151.336c-56.064,0-112.129,0-168.193,0
		c0-31.332,0-62.664,0-93.996c70.887,0,141.773,0,212.66,0c0,23.976,0,47.951,0,71.927"/>
	<path fill="#d94362" d="M68.257,40.857c-2.04,0-4.08,0-6.119,0c0-0.874,0-1.748,0-2.622c2.04,0,4.08,0,6.119,0
		C68.257,39.109,68.257,39.983,68.257,40.857L68.257,40.857z"/>
	<path fill="#d94362" d="M58.017,40.857c-2.04,0-4.08,0-6.119,0c0-0.874,0-1.748,0-2.622c2.04,0,4.08,0,6.119,0
		C58.017,39.109,58.017,39.983,58.017,40.857L58.017,40.857z"/>
	<path fill="#d94362" d="M47.778,40.857c-2.04,0-4.08,0-6.119,0c0-0.874,0-1.748,0-2.622c2.04,0,4.08,0,6.119,0
		C47.778,39.109,47.778,39.983,47.778,40.857L47.778,40.857z"/>
	<path fill="#d94362" d="M88.984,141.254c0,2.137,0,4.273,0,6.41c-2.137,0-4.273,0-6.41,0"/>
	<path fill="#d94362" d="M79.132,147.742c-1.18,0.003-2.359,0.005-3.539,0.008c4.476-4.496,8.952-8.993,13.428-13.489
		c0.012,1.166,0.023,2.332,0.035,3.497C85.749,141.086,82.44,144.414,79.132,147.742L79.132,147.742z"/>
	<path fill="none" stroke="#d94362" stroke-width="2" stroke-miterlimit="10" d="M132.486,112.812c0-8.325,0-16.649,0-24.974
		c6.249,6.249,12.498,12.498,18.747,18.747c-3.745-0.254-7.489-0.509-11.234-0.764C137.495,108.152,134.991,110.482,132.486,112.812
		L132.486,112.812z"/>
	<path fill="none" stroke="#d94362" stroke-width="2" stroke-miterlimit="10" d="M138.349,107.89
		c1.672,4.315,3.344,8.631,5.017,12.946c1.493-0.556,2.987-1.111,4.48-1.667c-1.829-4.407-3.657-8.813-5.486-13.22"/>
	<path fill="none" stroke="#ffffde" stroke-width="2" stroke-miterlimit="10" d="M98.475,281.316
		c-0.466,4.862-3.13,7.526-7.992,7.992c-15.068,0-30.135,0-45.203,0c-4.862-0.467-7.525-3.131-7.992-7.992
		c0-34.918,0-69.835,0-104.753c0.467-4.86,3.131-7.524,7.992-7.99c15.068,0,30.135,0,45.203,0c4.861,0.466,7.525,3.13,7.992,7.99
		C98.475,211.481,98.475,246.398,98.475,281.316C98.475,283.515,98.475,281.316,98.475,281.316z"/>
	<path fill="none" stroke="#ffffde" stroke-width="2" stroke-miterlimit="10" d="M91.981,267.221c-16.233,0-32.466,0-48.7,0
		c0-26.806,0-53.612,0-80.418c16.233,0,32.466,0,48.7,0C91.981,213.608,91.981,240.415,91.981,267.221L91.981,267.221z"/>
	<path fill="none" stroke="#ffffde" stroke-width="2" stroke-miterlimit="10" d="M76.497,176.849c-0.219,0.357-0.552,0.506-1,0.443
		c-5.244,0-10.488,0-15.732,0c-0.448,0.062-0.781-0.086-1-0.443c0.219-0.357,0.552-0.505,1-0.442c5.244,0,10.488,0,15.732,0
		C75.944,176.345,76.278,176.492,76.497,176.849C76.497,176.971,76.497,176.728,76.497,176.849z"/>
	<path fill="none" stroke="#d94362" stroke-width="2" stroke-miterlimit="10" d="M85.738,228.421c-11.975,0-23.95,0-35.924,0
		c0-7.768,0-15.536,0-23.304c11.975,0,23.95,0,35.924,0C85.738,212.885,85.738,220.653,85.738,228.421L85.738,228.421z"/>
	<path fill="none" stroke="#d94362" stroke-width="2" stroke-miterlimit="10" d="M85.738,257.979c-11.975,0-23.95,0-35.924,0
		c0-7.768,0-15.535,0-23.303c11.975,0,23.95,0,35.924,0C85.738,242.444,85.738,250.212,85.738,257.979L85.738,257.979z"/>
	<path fill="#d94362" d="M72.487,198.417c-2.988,0-5.976,0-8.963,0c0-0.874,0-1.748,0-2.622c2.988,0,5.976,0,8.963,0
		C72.487,196.669,72.487,197.543,72.487,198.417L72.487,198.417z"/>
	<path fill="#d94362" d="M87.486,198.417c-2.988,0-5.976,0-8.963,0c0-0.874,0-1.748,0-2.622c2.988,0,5.976,0,8.963,0
		C87.486,196.669,87.486,197.543,87.486,198.417L87.486,198.417z"/>
	<path fill="#d94362" d="M57.489,198.417c-2.988,0-5.976,0-8.963,0c0-0.874,0-1.748,0-2.622c2.988,0,5.976,0,8.963,0
		C57.489,196.669,57.489,197.543,57.489,198.417L57.489,198.417z"/>
	<path fill="none" stroke="#ffffde" stroke-width="2" stroke-miterlimit="10" d="M398.416,281.316
		c-0.466,4.862-3.13,7.526-7.992,7.992c-36.673,0-73.347,0-110.02,0c-4.862-0.466-7.526-3.13-7.992-7.992
		c0-48.07,0-96.142,0-144.212c0.467-4.861,3.131-7.525,7.992-7.991c36.673,0,73.347,0,110.02,0c4.861,0.466,7.525,3.13,7.992,7.991
		C398.416,185.175,398.416,233.246,398.416,281.316C398.416,283.515,398.416,281.316,398.416,281.316z"/>
	<path fill="none" stroke="#ffffde" stroke-width="2" stroke-miterlimit="10" d="M383.53,274.765c-32.077,0-64.155,0-96.232,0
		c0-43.703,0-87.405,0-131.108c32.077,0,64.155,0,96.232,0C383.53,187.359,383.53,231.062,383.53,274.765L383.53,274.765z"/>
	<path fill="none" stroke="#d94362" stroke-width="2" stroke-miterlimit="10" d="M370.59,194.448c-23.895,0-47.788,0-71.683,0
		c0-7.96,0-15.919,0-23.879c23.895,0,47.788,0,71.683,0C370.59,178.529,370.59,186.488,370.59,194.448L370.59,194.448z"/>
	<path fill="none" stroke="#d94362" stroke-width="2" stroke-miterlimit="10" d="M329.987,227.165c-10.36,0-20.72,0-31.08,0
		c0-7.96,0-15.919,0-23.879c10.36,0,20.72,0,31.08,0C329.987,211.246,329.987,219.205,329.987,227.165L329.987,227.165z"/>
	<path fill="none" stroke="#d94362" stroke-width="2" stroke-miterlimit="10" d="M370.59,227.165c-10.36,0-20.72,0-31.08,0
		c0-7.96,0-15.919,0-23.879c10.36,0,20.72,0,31.08,0C370.59,211.246,370.59,219.205,370.59,227.165L370.59,227.165z"/>
	<path fill="none" stroke="#d94362" stroke-width="2" stroke-miterlimit="10" d="M370.59,260.228c-23.895,0-47.788,0-71.683,0
		c0-7.96,0-15.919,0-23.879c23.895,0,47.788,0,71.683,0C370.59,244.309,370.59,252.268,370.59,260.228L370.59,260.228z"/>
	<path fill="#d94362" d="M370.59,159.486c-5.716,0-11.433,0-17.148,0c0-0.874,0-1.749,0-2.623c5.716,0,11.433,0,17.148,0
		C370.59,157.737,370.59,158.612,370.59,159.486L370.59,159.486z"/>
	<path fill="#d94362" d="M343.245,159.486c-5.717,0-11.433,0-17.149,0c0-0.874,0-1.749,0-2.623c5.717,0,11.433,0,17.149,0
		C343.245,157.737,343.245,158.612,343.245,159.486L343.245,159.486z"/>
	<path fill="#d94362" d="M316.057,159.486c-5.717,0-11.433,0-17.149,0c0-0.874,0-1.749,0-2.623c5.717,0,11.433,0,17.149,0
		C316.057,157.737,316.057,158.612,316.057,159.486L316.057,159.486z"/>
</g>
</svg>
