<?xml version="1.0" encoding="utf-8"?>
<!-- Generator: Adobe Illustrator 15.0.0, SVG Export Plug-In . SVG Version: 6.00 Build 0)  -->
<svg version="1.2" baseProfile="tiny" id="Layer_1" xmlns="http://www.w3.org/2000/svg" xmlns:xlink="http://www.w3.org/1999/xlink"
	 x="0px" y="0px" width="435.617px" height="267.242px" viewBox="0 0 435.617 267.242" overflow="inherit" xml:space="preserve">
<g>
	<path fill="none" stroke="#d94362" stroke-width="2" stroke-miterlimit="10" d="M64.342,34.045
		c6.727-11.176,13.455-22.353,20.182-33.529"/>
	<path fill="none" stroke="#d94362" stroke-width="2" stroke-miterlimit="10" d="M254.204,34.045
		c-6.646-11.161-13.29-22.322-19.935-33.483"/>
	<path fill="none" stroke="#d94362" stroke-width="2" stroke-miterlimit="10" d="M127.562,34.175
		c2.483-11.22,4.966-22.439,7.449-33.659"/>
	<path fill="none" stroke="#d94362" stroke-width="2" stroke-miterlimit="10" d="M190.811,34.175
		c-2.291-11.22-4.582-22.439-6.872-33.659"/>
	<path fill="none" stroke="#d94362" stroke-width="2" stroke-miterlimit="10" d="M1.048,34.433c105.501,0,211.002,0,316.503,0"/>
	<path fill="none" stroke="#ffffde" stroke-width="2" stroke-linecap="round" stroke-linejoin="round" stroke-miterlimit="10" d="
		M298.677,87.094c0,45,0,90,0,135c-58.667,0-117.333,0-176,0c0-33.333,0-66.667,0-100c-22.667,0-45.333,0-68,0
		c0,33.333,0,66.667,0,100c-11.333,0-22.667,0-34,0c0-45,0-90,0-135"/>
	<path fill="none" stroke="#ffffde" stroke-width="2" stroke-linecap="round" stroke-linejoin="round" stroke-miterlimit="10" d="
		M64.342,58.095c0,17.24,14.385,31.627,31.625,31.627c17.241,0,31.626-14.387,31.626-31.627"/>
	<path fill="none" stroke="#ffffde" stroke-width="2" stroke-linecap="round" stroke-linejoin="round" stroke-miterlimit="10" d="
		M127.685,58.095c0,17.24,14.384,31.627,31.625,31.627c17.241,0,31.626-14.387,31.626-31.627"/>
	<path fill="none" stroke="#ffffde" stroke-width="2" stroke-linecap="round" stroke-linejoin="round" stroke-miterlimit="10" d="
		M191.026,58.095c0,17.24,14.384,31.627,31.625,31.627c17.241,0,31.626-14.387,31.626-31.627"/>
	<path fill="none" stroke="#ffffde" stroke-width="2" stroke-linecap="round" stroke-linejoin="round" stroke-miterlimit="10" d="
		M64.251,58.095c0,17.24-14.385,31.627-31.626,31.625C15.385,89.72,1,75.334,1,58.095c0.016-7.798,0.031-15.597,0.047-23.396
		C12.363,23.498,23.678,12.295,34.993,1.094c82.87,0,165.74,0,248.61,0c11.315,11.202,22.63,22.404,33.945,33.605
		c0.023,7.855,0.047,15.711,0.069,23.567c-0.002,17.246-14.403,31.54-31.625,31.54c-17.25,0-31.626-14.431-31.626-31.668"/>
	<path fill="none" stroke="#d94362" stroke-width="2" stroke-miterlimit="10" d="M155.677,122.093c37,0,74,0,111,0c0,23,0,46,0,69
		c-37,0-74,0-111,0C155.677,168.093,155.677,145.093,155.677,122.093L155.677,122.093z"/>
	<path fill="none" d="M53.827,221.907c22.802,0,45.604,0,68.405,0"/>
	<path fill="none" stroke="#ffffde" stroke-width="2" stroke-linecap="round" stroke-linejoin="round" stroke-miterlimit="10" d="
		M53.827,221.907c22.802,0,45.604,0,68.405,0"/>
	<path fill="#372D3B" d="M116.011,171.387c-0.27,2.876-1.843,4.45-4.719,4.721c-2.876-0.271-4.449-1.844-4.718-4.721
		c0.27-2.875,1.842-4.448,4.718-4.719C114.168,166.938,115.74,168.512,116.011,171.387"/>
	<path fill="none" stroke="#ffffde" stroke-width="2" stroke-linecap="round" stroke-linejoin="round" stroke-miterlimit="10" d="
		M111.292,166.668c2.876,0.271,4.449,1.843,4.719,4.719c-0.27,2.876-1.842,4.449-4.719,4.719c-2.876-0.27-4.45-1.843-4.72-4.719
		C106.843,168.511,108.416,166.938,111.292,166.668C112.595,166.668,109.989,166.668,111.292,166.668z"/>
	<path fill="none" stroke="#d94362" stroke-width="2" stroke-miterlimit="10" d="M156.154,171.566
		c16.491-16.491,32.982-32.981,49.474-49.473"/>
	<path fill="none" stroke="#d94362" stroke-width="2" stroke-miterlimit="10" d="M171.493,191.055
		c22.801-22.802,45.603-45.604,68.404-68.406"/>
	<path fill="none" stroke="#d94362" stroke-width="2" stroke-miterlimit="10" d="M195.479,190.908
		c22.938-22.938,45.877-45.875,68.815-68.813"/>
	<path fill="none" stroke="#d94362" stroke-width="2" stroke-miterlimit="10" d="M230.16,191.055
		c17.229-17.229,34.456-34.456,51.684-51.685"/>
	<path fill="#372D3B" d="M263.677,140.094c0,26.28,0,52.562,0,78.842c0,8.58,26.777,8.433,31.5,8.433c4.721,0,31.5,0.151,31.5-8.427
		c0-26.282,0-52.565,0-78.848"/>
	<path fill="none" stroke="#ffffde" stroke-width="2" stroke-linecap="round" stroke-linejoin="round" stroke-miterlimit="10" d="
		M263.677,140.094c0,26.28,0,52.562,0,78.842c0,8.58,26.777,8.433,31.5,8.433c4.721,0,31.5,0.151,31.5-8.427
		c0-26.282,0-52.565,0-78.848"/>
	<path fill="#372D3B" d="M326.68,204.43c0,8.525-26.758,8.432-31.482,8.432s-31.48,0.094-31.48-8.432"/>
	<path fill="none" stroke="#ffffde" stroke-width="2" stroke-linecap="round" stroke-linejoin="round" stroke-miterlimit="10" d="
		M326.68,204.43c0,8.525-26.758,8.432-31.482,8.432s-31.48,0.094-31.48-8.432"/>
	<path fill="#372D3B" d="M326.68,188.227c0,8.524-26.759,8.431-31.482,8.431c-4.725,0-31.48,0.093-31.48-8.431"/>
	<path fill="none" stroke="#ffffde" stroke-width="2" stroke-linecap="round" stroke-linejoin="round" stroke-miterlimit="10" d="
		M326.68,188.227c0,8.524-26.759,8.431-31.482,8.431c-4.725,0-31.48,0.093-31.48-8.431"/>
	<path fill="#372D3B" d="M326.68,171.891c0,8.525-26.758,8.432-31.482,8.432s-31.48,0.094-31.48-8.432"/>
	<path fill="none" stroke="#ffffde" stroke-width="2" stroke-linecap="round" stroke-linejoin="round" stroke-miterlimit="10" d="
		M326.68,171.891c0,8.525-26.758,8.432-31.482,8.432s-31.48,0.094-31.48-8.432"/>
	<path fill="#372D3B" d="M326.68,155.688c0,8.524-26.759,8.431-31.482,8.431c-4.725,0-31.48,0.093-31.48-8.431"/>
	<path fill="none" stroke="#ffffde" stroke-width="2" stroke-linecap="round" stroke-linejoin="round" stroke-miterlimit="10" d="
		M326.68,155.688c0,8.524-26.759,8.431-31.482,8.431c-4.725,0-31.48,0.093-31.48-8.431"/>
	<path fill="#372D3B" d="M326.68,138.438c0,8.525-26.758,8.432-31.482,8.432s-31.48,0.094-31.48-8.432
		c0-8.522,26.758-8.43,31.48-8.43C299.921,130.008,326.68,129.915,326.68,138.438"/>
	<path fill="none" stroke="#ffffde" stroke-width="2" stroke-linecap="round" stroke-linejoin="round" stroke-miterlimit="10" d="
		M295.198,130.007c4.725,0,31.482-0.094,31.482,8.431c0,8.525-26.758,8.432-31.482,8.432s-31.481,0.094-31.481-8.432
		C263.716,129.913,290.473,130.007,295.198,130.007C303.891,130.007,286.504,130.007,295.198,130.007z"/>
	<path fill="#372D3B" d="M229.677,200.094c0,15.689,0,31.378,0,47.067c0,8.526,27.765,8.432,32.5,8.432s32.5,0.099,32.5-8.427
		c0-15.69,0-31.382,0-47.072"/>
	<path fill="none" stroke="#ffffde" stroke-width="2" stroke-linecap="round" stroke-linejoin="round" stroke-miterlimit="10" d="
		M229.677,200.094c0,15.689,0,31.378,0,47.067c0,8.526,27.765,8.432,32.5,8.432s32.5,0.099,32.5-8.427c0-15.69,0-31.382,0-47.072"/>
	<path fill="#372D3B" d="M326.677,167.094c0,27.081,0,54.162,0,81.243c0,8.526,27.764,8.435,32.5,8.435
		c4.735,0,32.5,0.096,32.5-8.429c0-27.083,0-54.166,0-81.249"/>
	<path fill="none" stroke="#ffffde" stroke-width="2" stroke-linecap="round" stroke-linejoin="round" stroke-miterlimit="10" d="
		M326.677,167.094c0,27.081,0,54.162,0,81.243c0,8.526,27.764,8.435,32.5,8.435c4.735,0,32.5,0.096,32.5-8.429
		c0-27.083,0-54.166,0-81.249"/>
	<path fill="#372D3B" d="M294.677,232.655c0,8.578-27.77,8.431-32.5,8.431c-4.731,0-32.5,0.148-32.5-8.431"/>
	<path fill="none" stroke="#ffffde" stroke-width="2" stroke-linecap="round" stroke-linejoin="round" stroke-miterlimit="10" d="
		M294.677,232.655c0,8.578-27.77,8.431-32.5,8.431c-4.731,0-32.5,0.148-32.5-8.431"/>
	<path fill="#372D3B" d="M294.677,216.452c0,8.578-27.77,8.43-32.5,8.43s-32.5,0.148-32.5-8.43"/>
	<path fill="none" stroke="#ffffde" stroke-width="2" stroke-linecap="round" stroke-linejoin="round" stroke-miterlimit="10" d="
		M294.677,216.452c0,8.578-27.77,8.43-32.5,8.43s-32.5,0.148-32.5-8.43"/>
	<path fill="#372D3B" d="M294.677,200.117c0,8.577-27.77,8.431-32.5,8.431s-32.5,0.147-32.5-8.431c0-8.576,27.771-8.43,32.5-8.43
		S294.677,191.541,294.677,200.117"/>
	<path fill="none" stroke="#ffffde" stroke-width="2" stroke-linecap="round" stroke-linejoin="round" stroke-miterlimit="10" d="
		M262.177,191.686c4.731,0,32.5-0.147,32.5,8.432c0,8.578-27.77,8.431-32.5,8.431s-32.5,0.147-32.5-8.431
		C229.677,191.538,257.446,191.686,262.177,191.686C271.152,191.686,253.202,191.686,262.177,191.686z"/>
	<path fill="#372D3B" d="M391.68,167.84c0,8.578-27.763,8.432-32.494,8.432s-32.493,0.146-32.493-8.432
		c0-8.576,27.763-8.43,32.493-8.43C363.915,159.41,391.68,159.264,391.68,167.84"/>
	<path fill="none" stroke="#ffffde" stroke-width="2" stroke-linecap="round" stroke-linejoin="round" stroke-miterlimit="10" d="
		M359.186,159.409c4.73,0,32.494-0.146,32.494,8.431c0,8.578-27.763,8.432-32.494,8.432s-32.494,0.146-32.494-8.432
		C326.692,159.263,354.455,159.409,359.186,159.409C368.158,159.409,350.213,159.409,359.186,159.409z"/>
	<path fill="#372D3B" d="M391.68,233.832c0,8.576-27.764,8.432-32.494,8.432c-4.731,0-32.493,0.146-32.493-8.432"/>
	<path fill="none" stroke="#ffffde" stroke-width="2" stroke-linecap="round" stroke-linejoin="round" stroke-miterlimit="10" d="
		M391.68,233.832c0,8.576-27.764,8.432-32.494,8.432c-4.731,0-32.493,0.146-32.493-8.432"/>
	<path fill="#372D3B" d="M391.68,217.628c0,8.577-27.764,8.431-32.494,8.431c-4.731,0-32.493,0.148-32.493-8.431"/>
	<path fill="none" stroke="#ffffde" stroke-width="2" stroke-linecap="round" stroke-linejoin="round" stroke-miterlimit="10" d="
		M391.68,217.628c0,8.577-27.764,8.431-32.494,8.431c-4.731,0-32.493,0.148-32.493-8.431"/>
	<path fill="#372D3B" d="M391.68,201.293c0,8.578-27.763,8.432-32.494,8.432s-32.493,0.146-32.493-8.432"/>
	<path fill="none" stroke="#ffffde" stroke-width="2" stroke-linecap="round" stroke-linejoin="round" stroke-miterlimit="10" d="
		M391.68,201.293c0,8.578-27.763,8.432-32.494,8.432s-32.493,0.146-32.493-8.432"/>
	<path fill="#372D3B" d="M391.68,185.089c0,8.578-27.763,8.431-32.494,8.431s-32.493,0.148-32.493-8.431"/>
	<path fill="none" stroke="#ffffde" stroke-width="2" stroke-linecap="round" stroke-linejoin="round" stroke-miterlimit="10" d="
		M391.68,185.089c0,8.578-27.763,8.431-32.494,8.431s-32.493,0.148-32.493-8.431"/>
	<path fill="#372D3B" d="M434.617,233.902c0,17.629-14.711,32.34-32.34,32.34s-32.339-14.711-32.339-32.34
		c0-17.628,14.711-32.34,32.339-32.34C419.906,201.562,434.617,216.273,434.617,233.902"/>
	<path fill="none" stroke="#ffffde" stroke-width="2" stroke-linecap="round" stroke-linejoin="round" stroke-miterlimit="10" d="
		M402.279,201.562c17.63,0,32.339,14.711,32.339,32.34s-14.71,32.339-32.339,32.339s-32.339-14.71-32.339-32.339
		S384.649,201.562,402.279,201.562C411.209,201.562,393.348,201.562,402.279,201.562z"/>
	<path fill="none" stroke="#d94362" stroke-width="2" stroke-miterlimit="10" d="M402.278,208.988
		c13.581,0,24.914,11.333,24.914,24.914s-11.333,24.914-24.914,24.914s-24.914-11.333-24.914-24.914
		S388.697,208.988,402.278,208.988C409.157,208.988,395.398,208.988,402.278,208.988z"/>
	<g>
		<path fill="#ffffde" d="M400.122,248.723c0-1.122,0-2.243,0-3.365c-1.849-0.017-3.554-0.51-5.115-1.481
			c0.269-0.752,0.538-1.504,0.808-2.255c1.464,0.936,3.068,1.418,4.813,1.447c2.333,0.033,3.669-1.066,4.006-3.299
			c-0.349-2.134-1.617-3.469-3.805-4.006c-3.206-0.752-5.058-2.705-5.554-5.856c0.272-3.084,1.955-4.892,5.049-5.421
			c0-1.122,0-2.243,0-3.365c0.707,0,1.414,0,2.121,0c0,1.089,0,2.177,0,3.266c1.562,0.029,3.021,0.422,4.375,1.178
			c-0.279,0.741-0.56,1.482-0.841,2.223c-1.293-0.781-2.707-1.174-4.241-1.178c-2.145-0.036-3.334,0.94-3.567,2.929
			c0.497,2.121,1.889,3.4,4.174,3.837c3.181,0.887,4.92,2.929,5.218,6.126c-0.266,3.239-2.038,5.147-5.318,5.724
			c0,1.167,0,2.333,0,3.5c-0.707,0-1.415,0-2.122,0C400.122,248.724,400.122,248.724,400.122,248.723L400.122,248.723z"/>
	</g>
</g>
</svg>
