<?xml version="1.0" encoding="utf-8"?>
<!-- Generator: Adobe Illustrator 16.0.0, SVG Export Plug-In . SVG Version: 6.00 Build 0)  -->
<!DOCTYPE svg PUBLIC "-//W3C//DTD SVG 1.1//EN" "http://www.w3.org/Graphics/SVG/1.1/DTD/svg11.dtd">
<svg version="1.1" id="Layer_1" xmlns="http://www.w3.org/2000/svg" xmlns:xlink="http://www.w3.org/1999/xlink" x="0px" y="0px"
	 width="536px" height="556px" viewBox="0 0 536 556" enable-background="new 0 0 536 556" xml:space="preserve">
<path fill="#FFCA4F" d="M268.001,16.508c144.558,0,261.743,117.188,261.743,261.746C529.744,422.813,412.559,540,268.001,540
	C123.443,540,6.253,422.813,6.253,278.253C6.253,133.696,123.443,16.508,268.001,16.508z"/>
<path fill="#09897D" d="M84.594,131.041h366.811v240.164H84.594V131.041z"/>
<path fill="#DFE1E3" d="M444.198,131.041H268v230.316h176.198V131.041z"/>
<path fill="#FFFFFF" d="M437.959,131.041c-56.65,0-110.764-24.158-169.959,0V346.78h169.959V131.041L437.959,131.041z"/>
<path fill="#DFE1E3" d="M91.799,131.041H268v230.316H91.799V131.041z"/>
<path fill="#FFFFFF" d="M98.037,131.041c56.649,0,138.522-23.739,169.963,0V346.78H98.037V131.041z"/>
<path fill="#ECF0F1" d="M265.118,131.041h5.762v215.741h-5.762V131.041z"/>
<path fill="#FBB429" d="M112.561,149.255h65.598v9.012h-65.598V149.255z"/>
<g>
	<path fill="#00223F" d="M112.561,244.441h131.191v4.748H112.561V244.441z M112.561,234.866L112.561,234.866h131.191v4.747H112.561
		V234.866z M112.561,172.241L112.561,172.241h131.191v4.748H112.561V172.241z M112.561,220.122L112.561,220.122h57.442v4.747
		h-57.442V220.122z M112.561,210.546L112.561,210.546h131.191v4.747H112.561V210.546z M112.561,200.969L112.561,200.969h131.191
		v4.748H112.561V200.969z M112.561,191.393L112.561,191.393h131.191v4.748H112.561V191.393z M112.561,181.816L112.561,181.816
		h131.191v4.748H112.561V181.816z M112.561,282.746L112.561,282.746h45.152v4.748h-45.152V282.746z M112.561,273.171
		L112.561,273.171h131.191v4.748H112.561V273.171z M112.561,263.596L112.561,263.596h131.191v4.747H112.561V263.596z
		 M112.561,254.02L112.561,254.02h131.191v4.748H112.561V254.02z"/>
	<path fill="#00223F" d="M287.384,273.171h131.192v4.748H287.384V273.171z M287.384,200.968L287.384,200.968h131.192v4.748H287.384
		V200.968z M287.384,210.546L287.384,210.546h131.192v4.747H287.384V210.546z M287.384,181.816L287.384,181.816h131.192v4.748
		H287.384V181.816z M287.384,172.241L287.384,172.241h131.192v4.748H287.384V172.241z M287.384,234.866L287.384,234.866h131.192
		v4.747H287.384V234.866z M287.384,244.441L287.384,244.441h131.192v4.748H287.384V244.441z M287.384,254.02L287.384,254.02h131.192
		v4.746H287.384V254.02z M287.384,263.593L287.384,263.593h131.192v4.748H287.384V263.593z"/>
</g>
<g>
	<path fill="#C3CCCF" d="M287.384,282.746h45.149v4.748h-45.149V282.746L287.384,282.746z"/>
	<path fill="#C3CCCF" d="M287.384,191.393h57.44v4.748h-57.44V191.393L287.384,191.393z"/>
	<path fill="#C3CCCF" d="M287.384,220.122h57.44v4.747h-57.44V220.122L287.384,220.122z"/>
</g>
<path fill="#FFFFFF" d="M376.181,113.763c-39.77,13.605-63.745-21.1-105.301,17.279v215.739
	c33.298-15.27,107.491-10.714,106.088-41.691L376.181,113.763z"/>
<path fill="#ECF0F1" d="M344.671,80.013c2.765,0.134,33.514,6.47,31.511,39.195l0.919,188.628c0-11.549-5.966-39.495-29.337-34.665
	L344.671,80.013z"/>
<path fill="#E6E6E6" d="M376.181,301.514c5.502,34.088-72.604,27.85-105.301,43.396v1.872
	C304.099,331.55,386.953,336.528,376.181,301.514L376.181,301.514z"/>
<path fill="#FED198" d="M345.814,259.938c4.518-0.584,9.104,4.174,7.285,8.346l-6.689,15.338l0.9,14.391l4.021-4.011l7.839-11.114
	l13.381-26.178l-1.916-22.236c-0.438-5.101,4.692-7.08,8.304-5.66c3.275,1.291,3.452,5.551,3.938,10.16l2.719,25.777l-7.645,18.506
	l1.933,1.141l4.96-10.78c1.938-4.216,7.222-5.783,11.35-3.673c4.131,2.111,5.61,7.138,3.673,11.351l-5.39,11.724l2.188,1.291
	l3.345-7.625c4.201-9.57,19.814-3.246,15.024,7.68l-3.761,8.572l2.621,1.549l2.097-4.282c4.894-9.978,19.978-2.425,15.023,7.68
	l-4.348,8.875l-0.6,1.584l-27.298,45.788c-3.703,6.215-9.188,10.196-13.689,11.781c-1.288,0.453-2.497,0.71-3.56,0.768
	l-40.198,80.932c-12.744-3.025-25.3-7.763-37.354-14.323c-6.818-3.711-13.237-7.875-19.239-12.43l49.389-82.441
	c-3.601-4.896-7.063-14.041-6.302-18.847l-0.025,0.017l0.194-44.396c0.013-3.295,7.048-14.041,12.598-20.453
	C342.698,262.283,344.601,260.467,345.814,259.938L345.814,259.938z"/>
<path fill="#666666" d="M313.335,371.149l59.985,25.563l-47.328,92.301c-18.465,4.104-37.906,6.307-57.992,6.307
	c-11.473,0-22.732-0.722-33.725-2.099L313.335,371.149z"/>
<path fill="#FFFFFF" d="M320.831,361.452l56.479,29.543l-5.841,10.866l-56.479-29.545L320.831,361.452z"/>
<path fill="#00223F" d="M353.891,407.979c3.094,1.647,4.304,5.429,2.702,8.441c-1.603,3.015-5.409,4.123-8.497,2.479
	c-3.094-1.646-4.301-5.425-2.702-8.439C346.992,407.446,350.801,406.336,353.891,407.979L353.891,407.979z"/>
<path fill="#ECF0F1" d="M351.179,272.684c-1.094,0.084-2.231,0.242-3.416,0.486l-0.197-13.202c3.849,0.613,7.114,4.687,5.533,8.315
	L351.179,272.684z"/>
<path fill="#00223F" d="M287.384,277.529c16.106-17.004,35.345-31.055,60.045-30.067c0,1.588,0,3.179,0,4.753
	c-24.178-2.007-44.494,13.705-60.045,30.208C287.384,280.807,287.384,279.177,287.384,277.529L287.384,277.529z M287.384,202.873
	L287.384,202.873c27.632-26.52,36.2-9.409,58.964-22.965c0,1.59,0,3.179,0,4.754c-24.082,13.341-31.426-3.508-58.964,23.12
	C287.384,206.15,287.384,204.52,287.384,202.873z M287.384,212.777L287.384,212.777c0,1.645,0,3.275,0,4.906
	c26.903-26.359,32.521-11.047,59.116-23.529c0-1.576,0-3.164,0-4.754C321.058,202.4,314.719,186.188,287.384,212.777
	L287.384,212.777z M287.384,183.066L287.384,183.066c0,1.646,0,3.277,0,4.908c27.188-25.584,39.52-9.959,58.637-23.75
	c0-1.574,0-3.149,0-4.74C327.85,173.35,314.395,157.842,287.384,183.066z M287.384,173.163L287.384,173.163c0,1.646,0,3.278,0,4.909
	c26.758-24.836,41.269-9.426,58.637-23.425c0-1.574,0-3.164,0-4.751C329.303,164.059,313.954,148.69,287.384,173.163z
	 M287.384,237.932L287.384,237.932c20.896-24.205,30.459-21.048,59.455-29.638c0,1.589,0,3.177,0,4.752
	c-28.854,7.353-38.996,7.077-59.455,29.796C287.384,241.208,287.384,239.564,287.384,237.932z M287.384,247.834L287.384,247.834
	c0,1.633,0,3.264,0,4.895c20.257-20.746,31.668-25.424,59.569-30.14l-0.114-4.719C318.363,223.941,308.762,226.061,287.384,247.834
	L287.384,247.834z M287.384,257.736L287.384,257.736c0,1.634,0,3.265,0,4.896c18.355-19.04,33.093-27.914,59.729-30.201
	c0-1.574,0-3.162,0-4.752C319.808,231.197,306.668,237.852,287.384,257.736z M287.384,267.627L287.384,267.627
	c0,1.646,0,3.277,0,4.91c16.771-17.607,34.57-30.096,59.89-30.131c0-1.574,0-3.164,0-4.754
	C321.313,238.805,304.906,249.354,287.384,267.627L287.384,267.627z"/>
</svg>
