<?xml version="1.0" encoding="utf-8"?>
<!-- Generator: Adobe Illustrator 16.0.0, SVG Export Plug-In . SVG Version: 6.00 Build 0)  -->
<!DOCTYPE svg PUBLIC "-//W3C//DTD SVG 1.1//EN" "http://www.w3.org/Graphics/SVG/1.1/DTD/svg11.dtd">
<svg version="1.1" id="Layer_1" xmlns="http://www.w3.org/2000/svg" xmlns:xlink="http://www.w3.org/1999/xlink" x="0px" y="0px"
	 width="536px" height="536px" viewBox="0 0 536 536" enable-background="new 0 0 536 536" xml:space="preserve">

<path stroke="#ffffff" stroke-width="2" stroke-miterlimit="10" d="M114.071,241.018h129.917v4.703H114.071V241.018z
	 M114.071,231.534L114.071,231.534h129.917v4.702H114.071V231.534z M114.071,169.518L114.071,169.518h129.917v4.701H114.071V169.518
	z M114.071,216.934L114.071,216.934h56.887v4.7h-56.887V216.934z M114.071,207.45L114.071,207.45h129.917v4.7H114.071V207.45z
	 M114.071,197.966L114.071,197.966h129.917v4.702H114.071V197.966z M114.071,188.482L114.071,188.482h129.917v4.703H114.071V188.482
	z M114.071,179L114.071,179h129.917v4.701H114.071V179z M114.071,278.949L114.071,278.949h44.716v4.701h-44.716V278.949z
	 M114.071,269.467L114.071,269.467h129.917v4.703H114.071V269.467z M114.071,259.984L114.071,259.984h129.917v4.701H114.071V259.984
	z M114.071,250.501L114.071,250.501h129.917v4.702H114.071V250.501z"/>

<path stroke="#ffffff" stroke-width="2" stroke-miterlimit="10" d="M287.196,273.783c15.952-16.838,35.002-30.754,59.462-29.774
	c0,1.573,0,3.148,0,4.707c-23.941-1.985-44.063,13.571-59.462,29.915C287.196,277.027,287.196,275.415,287.196,273.783
	L287.196,273.783z M287.196,199.854L287.196,199.854c27.364-26.264,35.851-9.318,58.393-22.742c0,1.574,0,3.147,0,4.707
	c-23.85,13.211-31.119-3.473-58.393,22.896C287.196,203.098,287.196,201.482,287.196,199.854z M287.196,209.661L287.196,209.661
	c0,1.628,0,3.245,0,4.858c26.646-26.104,32.209-10.938,58.543-23.303c0-1.56,0-3.132,0-4.705
	C320.54,199.385,314.264,183.329,287.196,209.661L287.196,209.661z M287.196,180.238L287.196,180.238c0,1.629,0,3.246,0,4.861
	c26.924-25.338,39.137-9.863,58.066-23.521c0-1.56,0-3.119,0-4.694C327.268,170.615,313.944,155.258,287.196,180.238z
	 M287.196,170.432L287.196,170.432c0,1.629,0,3.246,0,4.86c26.497-24.595,40.867-9.334,58.066-23.198c0-1.559,0-3.133,0-4.705
	C328.705,161.415,313.509,146.195,287.196,170.432z M287.196,234.568L287.196,234.568c20.693-23.969,30.164-20.842,58.877-29.35
	c0,1.573,0,3.146,0,4.707c-28.568,7.28-38.617,7.008-58.877,29.506C287.196,237.816,287.196,236.188,287.196,234.568z
	 M287.196,244.377L287.196,244.377c0,1.616,0,3.23,0,4.846c20.063-20.543,31.361-25.178,58.994-29.847l-0.117-4.673
	C317.875,220.715,308.365,222.814,287.196,244.377L287.196,244.377z M287.196,254.184L287.196,254.184c0,1.617,0,3.232,0,4.851
	c18.181-18.856,32.771-27.644,59.149-29.909c0-1.559,0-3.132,0-4.706C319.304,227.9,306.29,234.49,287.196,254.184z
	 M287.196,263.979L287.196,263.979c0,1.631,0,3.244,0,4.86c16.607-17.435,34.236-29.802,59.31-29.837c0-1.559,0-3.133,0-4.707
	C320.794,235.436,304.548,245.882,287.196,263.979L287.196,263.979z"/>
</svg>
