<?xml version="1.0" encoding="utf-8"?>
<!-- Generator: Adobe Illustrator 15.0.0, SVG Export Plug-In . SVG Version: 6.00 Build 0)  -->
<svg version="1.2" baseProfile="tiny" id="Layer_1" xmlns="http://www.w3.org/2000/svg" xmlns:xlink="http://www.w3.org/1999/xlink"
	 x="0px" y="0px" width="172px" height="55px" viewBox="0 0 172 55" overflow="inherit" xml:space="preserve">
<g>
	<path fill="none" stroke="#d94362" stroke-width="2" stroke-linecap="round" stroke-linejoin="round" stroke-miterlimit="10" d="
		M125.815,15.703c0-2.23,3.127-14.462,20.023-14.462c19.75,0,24.97,19.541,24.97,26.143c0,7.52-2.836,26.375-25.336,26.375
		s-40.78-39.263-79.5-39.263c-23.613,0-32.28,38.911-49.905,38.911c-9.75,0-14.875-5.625-14.875-11.875
		c0-6.625,4.438-11.125,11.563-11.125c6.592,0,9.562,4.75,9.562,9.25"/>
	<path fill="none" stroke="#d94362" stroke-width="2" stroke-linecap="round" stroke-linejoin="round" stroke-miterlimit="10" d="
		M71.942,30.408c-8.251,0-11.417,4.812-11.417,10.875c0,5.125,4.349,12.368,14.349,12.368s17-7.99,17-15.125
		c0-19.952-18.599-24.031-25.901-24.031"/>
</g>
</svg>
