<?xml version="1.0" encoding="utf-8"?>
<!-- Generator: Adobe Illustrator 18.0.0, SVG Export Plug-In . SVG Version: 6.00 Build 0)  -->
<!DOCTYPE svg PUBLIC "-//W3C//DTD SVG 1.1//EN" "http://www.w3.org/Graphics/SVG/1.1/DTD/svg11.dtd">
<svg version="1.1" id="Layer_1" xmlns="http://www.w3.org/2000/svg" xmlns:xlink="http://www.w3.org/1999/xlink" x="0px" y="0px"
	 width="217px" height="459px" viewBox="0 0 217 459" enable-background="new 0 0 217 459" xml:space="preserve">
<path id="container" marker-start="none" marker-end="none" fill="none" stroke="#FFFEDF" stroke-width="2" stroke-linecap="round" stroke-miterlimit="79.8403" d="
	M15.2,64.5v330.9h185.9V64.5H15.2z"/>
<path marker-start="none" marker-end="none" fill="none" stroke="#FFFEDF" stroke-width="2" stroke-linecap="round" stroke-miterlimit="79.8403" d="
	M15.2,64.5v330.9h185.9V64.5H15.2z"/>
<path fill="#C3415D" stroke="#FFFEDF" stroke-width="2" stroke-linecap="round" stroke-miterlimit="79.8403" d="M184.5,0.8H31.8
	c-17.1,0-31,13.9-31,31v394.6c0,17.1,13.9,31,31,31h152.7c17.1,0,31-13.9,31-31V31.8C215.5,14.7,201.6,0.8,184.5,0.8z M201.1,395.4
	H15.2V64.5h185.9V395.4z"/>
<path marker-start="none" marker-end="none" fill="none" stroke="#FFFEDF" stroke-width="2" stroke-miterlimit="79.8403" d="
	M90.9,411.5c6.3-9.5,19.1-12.2,28.6-5.9c9.5,6.3,12.2,19.1,5.9,28.6c-6.3,9.5-19.1,12.2-28.6,5.9C87.3,433.9,84.6,421,90.9,411.5z"
	/>
<path marker-start="none" marker-end="none" fill="none" stroke="#FFFEDF" stroke-width="2" d="M87.7,33.5V34c0,2.6,2.1,4.7,4.7,4.7
	h31.3c2.6,0,4.7-2.1,4.7-4.7v-0.5c0-2.6-2.1-4.7-4.7-4.7H92.5C89.9,28.7,87.7,30.9,87.7,33.5z"/>
</svg>
